<?xml version="1.0" standalone="no"?>
<!DOCTYPE svg PUBLIC "-//W3C//DTD SVG 20010904//EN"
 "http://www.w3.org/TR/2001/REC-SVG-20010904/DTD/svg10.dtd">
<svg version="1.0" xmlns="http://www.w3.org/2000/svg"
 width="500.000000pt" height="500.000000pt" viewBox="0 0 500.000000 500.000000"
 preserveAspectRatio="xMidYMid meet">

<g transform="translate(0.000000,500.000000) scale(0.100000,-0.100000)"
fill="#000000" stroke="none">
<path d="M2385 3930 c-201 -22 -395 -117 -541 -264 -123 -125 -197 -252 -259
-447 l-37 -117 -101 -66 c-56 -36 -111 -74 -122 -83 -85 -75 -88 -165 -6 -211
41 -23 176 -65 269 -83 l62 -13 0 -36 c0 -24 -23 -77 -76 -175 -86 -159 -98
-201 -64 -232 21 -21 61 -33 105 -33 23 0 23 0 26 -188 4 -186 4 -189 34 -247
25 -48 39 -63 80 -84 43 -23 66 -27 189 -33 78 -3 144 -7 148 -7 4 -1 16 -11
28 -23 18 -20 20 -35 20 -158 0 -76 5 -151 10 -167 11 -31 45 -53 81 -53 35 0
221 48 449 115 124 37 239 71 255 75 88 24 110 34 132 58 25 26 25 30 19 132
-20 350 -20 393 2 443 12 26 48 84 80 130 93 128 151 256 173 381 l11 67 45
12 c25 6 58 25 74 41 25 25 29 38 29 83 0 54 -14 92 -53 145 -11 15 -17 34
-14 42 11 29 -14 237 -39 325 -55 188 -129 299 -288 429 -38 31 -84 72 -101
91 -91 100 -400 176 -620 151z m305 -124 c55 -14 70 -19 123 -38 33 -13 19
-28 -26 -28 -81 0 -253 -139 -325 -261 -34 -58 -75 -159 -67 -167 8 -8 26 10
45 48 51 99 168 209 290 271 57 29 75 33 146 34 73 0 84 -3 125 -30 24 -16 76
-62 115 -101 137 -138 214 -344 214 -571 0 -91 1 -94 35 -139 38 -50 45 -87
18 -100 -10 -5 -164 -9 -343 -10 l-325 -1 -128 -32 c-220 -53 -364 -42 -970
79 -187 38 -257 59 -257 79 0 15 61 63 178 140 62 40 112 80 112 88 0 18 39
136 76 229 36 90 126 224 200 296 62 61 125 110 131 104 2 -2 -6 -24 -17 -50
-29 -61 -21 -77 15 -30 90 120 163 175 255 193 30 6 64 13 75 15 37 9 249 -4
305 -18z m258 -1296 c39 -24 72 -75 72 -114 0 -40 -38 -104 -72 -118 -27 -12
-28 -15 -28 -86 l0 -73 -88 -92 c-136 -142 -130 -133 -134 -195 -4 -77 7 -96
60 -100 36 -3 47 1 73 27 62 63 159 27 159 -58 0 -57 -33 -93 -87 -95 -30 0
-48 5 -66 22 -15 14 -36 22 -59 22 -106 0 -158 56 -158 170 l0 38 -85 7 c-141
11 -185 58 -185 196 0 71 -2 76 -26 89 -42 23 -68 68 -68 120 0 146 206 180
254 42 13 -37 13 -47 0 -84 -10 -28 -26 -50 -47 -63 -32 -20 -32 -20 -33 -107
0 -106 6 -112 125 -122 l80 -7 102 108 103 108 0 61 c0 55 -2 62 -25 72 -35
16 -65 70 -65 117 0 103 111 168 198 115z"/>
</g>
</svg>
